<svg width="30" height="20" xmlns="http://www.w3.org/2000/svg">
    <rect x="1" width="1" height="100%" fill="#ff0000" />
    <rect x="2" width="1" height="100%" fill="#ad0000" />
    <rect x="3" width="1" height="100%" fill="#ed0000" />
    <rect x="4" width="1" height="100%" fill="#ca0000" />
    <rect x="5" width="1" height="100%" fill="#ad0000" />
    <rect x="6" width="1" height="100%" fill="#ef0000" />
    <rect x="7" width="1" height="100%" fill="#fe0000" />
    <rect x="8" width="1" height="100%" fill="#af0000" />
    <rect x="9" width="1" height="100%" fill="#dd0000" />
    <rect x="10" width="1" height="100%" fill="#ff0000" />
    <rect x="11" width="1" height="100%" fill="#bc0000" />
    <rect x="12" width="1" height="100%" fill="#ea0000" />
    <rect x="13" width="1" height="100%" fill="#ad0000" />
    <rect x="14" width="1" height="100%" fill="#de0000" />
    <rect x="15" width="1" height="100%" fill="#fe0000" />
    <rect x="16" width="1" height="100%" fill="#af0000" />
    <rect x="17" width="1" height="100%" fill="#da0000" />
    <rect x="18" width="1" height="100%" fill="#cc0000" />
    <rect x="19" width="1" height="100%" fill="#bd0000" />
    <rect x="20" width="1" height="100%" fill="#ff0000" />
    <rect x="21" width="1" height="100%" fill="#aa0000" />
    <rect x="22" width="1" height="100%" fill="#dc0000" />
    <rect x="23" width="1" height="100%" fill="#ff0000" />
    <rect x="24" width="1" height="100%" fill="#ac0000" />
    <rect x="25" width="1" height="100%" fill="#ce0000" />
    <rect x="26" width="1" height="100%" fill="#be0000" />
    <rect x="27" width="1" height="100%" fill="#da0000" />
    <rect x="28" width="1" height="100%" fill="#ae0000" />
    <rect x="29" width="1" height="100%" fill="#de0000" />
    <rect x="30" width="1" height="100%" fill="#ff0000" />
</svg>